<svg width="720" height="240" viewBox="0 0 720 240" fill="none" xmlns="http://www.w3.org/2000/svg">
<path fill-rule="evenodd" clip-rule="evenodd" d="M59.1 180L88.2 129.3H68.5L78.4 112.4H124.9L115 129.3H98.1L68.5 180.9C101.4 180.9 128.6 153.7 128.6 120.8C128.6 87.8999 101.4 60.6999 68.5 60.6999C35.6 60.6999 63.8 60.6999 61.5 60.6999L31.9 111.9H68.5L58.6 128.8H12.2L50.2 63.1999C26.3 71.1999 8.4 93.6999 8.4 120.5C8.4 147.3 30.5 175.4 59.1 180.1M68.5 51.8999C106 51.8999 137.5 82.8999 137.5 120.4C137.5 157.9 106.5 189.4 68.5 189.4C30.5 189.4 0 158.5 0 120.4C0 82.2999 31 51.8999 68.5 51.8999Z" fill="#004B88"/>
<path d="M684.8 124.7C687.1 117.7 690.9 113 698.9 113C706.9 113 707.3 116.3 707.3 121.4C707.3 126.5 707.3 123.7 707.3 124.7H684.8ZM718.6 133.6C719.5 129.8 720 126.1 720 122.3C720 109.6 711.6 103.1 699.3 103.1C687 103.1 670.7 118.1 670.7 134.1C670.7 150.1 680.6 156.2 695.1 156.2C709.6 156.2 705.9 154.8 711.1 153.4L713 143.1C708.3 145.4 702.7 146.9 697.5 146.9C688.6 146.9 683.4 143.6 683.4 134.2H719.1L718.6 133.7V133.6ZM629.9 124.7C632.2 117.7 636 113 644 113C652 113 652.4 116.3 652.4 121.4C652.4 126.5 652.4 123.7 652.4 124.7H629.9ZM664.1 133.6C665 129.8 665.5 126.1 665.5 122.3C665.5 109.6 657.1 103.1 644.8 103.1C632.5 103.1 616.2 118.1 616.2 134.1C616.2 150.1 626.1 156.2 640.6 156.2C655.1 156.2 651.4 154.8 656.6 153.4L658.5 143.1C653.8 145.4 648.2 146.9 643 146.9C634.1 146.9 628.9 143.6 628.9 134.2H664.6L664.1 133.7V133.6ZM576.4 155.2H589.5L594.2 132.7C596.1 124.7 600.3 116.3 609.7 116.3C619.1 116.3 613.5 116.3 614.9 117.2L617.7 104.5C616.3 104.5 614.4 104 612.5 104C606.4 104 599.8 109.2 597.5 114.8L599.4 105.4H586.7C586.7 107.7 585.8 110.1 585.3 112L576.4 156.1V155.2ZM541.2 113.9H550.6L546.8 130.8C545.9 135 544.9 138.8 544.9 142.5C544.9 152.4 551 155.6 560.4 155.6C569.8 155.6 565.1 155.1 567.4 154.2L569.7 143.9C567.8 144.4 565.5 145.3 563.1 145.3C560.7 145.3 557.9 143.4 557.9 140.6C557.9 137.8 557.9 136.8 558.4 135.9L563.1 113.8H574.8L576.7 103.9H565L568.3 88.9L554.2 93.6L551.9 103.9H542.5L540.6 113.8H541.1L541.2 113.9ZM507.4 113.4C514 113.4 516.8 119.5 516.8 125.6C516.8 135 511.2 146.3 501.3 146.3C491.4 146.3 493.3 139.3 493.3 134.1C493.3 126.6 497.5 113.4 507.4 113.4ZM527.6 81L521 110.1C516.8 105.4 511.6 103.1 505.5 103.1C488.1 103.1 480.2 120 480.2 135C480.2 150 485.8 156.1 497.6 156.1C509.4 156.1 510.3 152.8 514 147.7L512.6 155.2H524.8C524.8 152.9 525.7 148.2 526.7 143.9L540.3 81.5H527.2L527.7 81H527.6ZM417.7 155.2H430.8L436.4 129.9C438.3 122.4 441.6 113.9 450.5 113.9C459.4 113.9 457.5 116.7 457.5 120.9C457.5 125.1 456.6 127.9 456.1 131.7L451.4 155.6H464.5L469.7 131.2C470.2 127.9 471.6 124.2 471.6 120.4C471.6 110.5 465 104 455.2 104C445.4 104 444.4 106.8 440.6 110.1L441.5 105.4H428.8C428.8 106.8 428.3 109.6 427.4 112.9L418 156.1L417.5 155.2H417.7ZM403.2 95.1H416.3L419.1 82.4H406L403.2 95.1ZM390.5 155.2H403.6L414.4 104.5H401.3L390.5 155.2ZM298.5 155.2H311.6L324.3 98.4L329.9 155.2H343L374 98.4L360.9 155.2H375.5L390.1 86.7H367.1L339.9 136L335.2 86.7H312.7L298.1 155.2H298.6H298.5ZM269.9 155.2H284.5L299.1 86.7H284.5L269.9 155.2ZM221.5 97H240.7L228 154.7H242.6L255.3 97H274.5L276.8 86.2H223.8L221.5 97ZM171.8 155.2H212.6L214.9 144.4H188.1L200.3 86.7H186.7L172.1 155.2H171.6H171.8Z" fill="#004B88"/>
</svg>
